<svg width="2689" height="547" viewBox="0 0 2689 547" fill="none" xmlns="http://www.w3.org/2000/svg">
<path d="M264.87 320.455C261.857 321.08 258.735 321.411 255.537 321.411C252.334 321.411 249.21 321.083 246.193 320.455H264.87ZM478.363 320.455C476.203 320.768 473.993 320.934 471.745 320.934C469.5 320.934 467.292 320.768 465.132 320.455H478.363ZM288.164 311.364C285.609 312.738 283.042 314.024 280.462 315.19H232.516C230.568 314.05 228.714 312.768 226.963 311.364H288.164ZM499.716 311.364C497.89 312.779 495.956 314.059 493.927 315.19H447.915C445.272 314.033 442.646 312.744 440.029 311.364H499.716ZM303.534 302.264C301.468 303.559 299.404 304.845 297.333 306.095H221.425C220.338 304.876 219.315 303.598 218.361 302.264H303.534ZM508.575 302.264C507.595 303.598 506.546 304.878 505.429 306.095H430.742C428.654 304.845 426.571 303.563 424.49 302.264H508.575ZM318.09 293.168C316.026 294.422 313.962 295.704 311.902 296.997H215.112C214.456 295.754 213.855 294.477 213.314 293.168H318.09ZM513.769 293.168C513.209 294.477 512.593 295.754 511.92 296.997H416.075C414.009 295.704 411.943 294.422 409.872 293.168H513.769ZM334.797 284.075C332.25 285.248 329.718 286.534 327.193 287.904H211.506C211.159 286.648 210.864 285.372 210.624 284.075H334.797ZM516.565 284.075C516.312 285.372 516.006 286.648 515.643 287.904H400.751C398.222 286.534 395.686 285.248 393.137 284.075H516.565ZM517.427 275.216C517.427 276.426 517.379 277.622 517.287 278.808H378.24C374.304 277.889 370.328 277.371 366.292 277.371H361.631C357.599 277.371 353.625 277.889 349.692 278.808H209.964C209.895 277.78 209.855 276.741 209.855 275.695C209.855 275.456 209.86 275.218 209.864 274.979H517.424C517.424 275.058 517.427 275.137 517.427 275.216ZM340.584 265.884C344.523 266.796 348.513 267.317 352.571 267.317H374.055C378.113 267.317 382.103 266.796 386.04 265.884H516.471C516.731 267.142 516.939 268.417 517.094 269.713H210.246C210.415 268.417 210.639 267.14 210.914 265.884H340.584ZM317.768 256.786C320.348 258.149 322.934 259.44 325.536 260.617H212.4C212.856 259.313 213.368 258.035 213.935 256.786H317.768ZM513.559 256.786C514.11 258.035 514.609 259.313 515.048 260.617H401.071C403.668 259.44 406.248 258.149 408.821 256.786H513.559ZM301.736 247.691C303.927 248.973 306.122 250.253 308.313 251.52H216.762C217.588 250.196 218.479 248.918 219.431 247.691H301.736ZM508.218 247.691C509.145 248.92 510.015 250.198 510.818 251.52H418.248C420.43 250.253 422.609 248.973 424.789 247.691H508.218ZM285.348 238.597C287.762 239.807 290.165 241.094 292.561 242.426H224.21C225.666 241.052 227.212 239.772 228.841 238.597H285.348ZM499.097 238.597C500.671 239.777 502.165 241.057 503.572 242.426H433.877C436.243 241.096 438.617 239.814 440.998 238.597H499.097ZM255.537 229.977C259.367 229.977 263.09 230.451 266.647 231.34C268.844 231.891 271.028 232.561 273.197 233.331H238.346C243.652 231.171 249.455 229.977 255.537 229.977ZM471.745 229.5C478.262 229.5 484.458 230.869 490.066 233.331H452.766C455.396 232.348 458.042 231.504 460.713 230.841C464.246 229.963 467.941 229.5 471.745 229.5Z" fill="#FF592C"/>
<path d="M313.684 112.939C334.459 92.1478 334.459 58.4381 313.684 37.6466C292.909 16.8552 259.227 16.8552 238.452 37.6466C217.677 58.4381 217.677 92.1478 238.452 112.939C259.227 133.731 292.909 133.731 313.684 112.939Z" fill="#FF592C"/>
<path d="M125.512 309.847C146.287 289.055 146.287 255.345 125.512 234.554C104.737 213.762 71.0549 213.762 50.2801 234.554C29.5054 255.345 29.5053 289.055 50.2801 309.847C71.0549 330.638 104.737 330.638 125.512 309.847Z" fill="#FF592C"/>
<path d="M313.684 507.211C334.459 486.419 334.459 452.71 313.684 431.918C292.909 411.127 259.227 411.127 238.452 431.918C217.677 452.71 217.677 486.419 238.452 507.211C259.227 528.002 292.909 528.002 313.684 507.211Z" fill="#FF592C"/>
<path d="M337.945 134.965C358.718 114.175 392.402 114.174 413.176 134.965C433.951 155.756 433.951 189.467 413.176 210.259C392.402 231.05 358.721 231.05 337.945 210.259C323.599 195.902 307.423 178.8 287.136 178.8H263.162C242.876 178.8 226.698 195.901 212.353 210.259C191.578 231.05 157.895 231.05 137.12 210.259C116.346 189.467 116.345 155.756 137.12 134.965C157.895 114.174 191.579 114.174 212.353 134.965C227.201 149.825 243.834 167.937 264.832 167.937H285.462C306.461 167.937 323.096 149.825 337.945 134.965Z" fill="#FF592C"/>
<path d="M339.439 332.005C360.213 311.215 393.896 311.215 414.672 332.005C435.446 352.798 435.446 386.508 414.672 407.299C393.896 428.091 360.213 428.091 339.439 407.299C325.093 392.943 308.917 375.84 288.629 375.84H264.659C244.371 375.84 228.195 392.943 213.849 407.299C193.075 428.091 159.391 428.091 138.616 407.299C117.841 386.508 117.841 352.798 138.616 332.005C159.391 311.215 193.075 311.215 213.849 332.005C228.697 346.864 245.33 364.976 266.327 364.976H286.959C307.955 364.976 324.59 346.864 339.439 332.005Z" fill="#FF592C"/>
<path d="M543.565 411V142.147H629.901C672.06 142.147 704.499 153.885 727.219 177.363C749.939 200.588 761.299 233.784 761.299 276.952C761.299 319.868 750.065 352.938 727.597 376.163C705.382 399.388 673.574 411 632.173 411H543.565ZM584.461 373.512H629.901C659.69 373.512 681.905 365.56 696.547 349.656C711.441 333.5 718.888 309.265 718.888 276.952C718.888 244.134 711.441 219.773 696.547 203.869C681.905 187.713 659.69 179.635 629.901 179.635H584.461V373.512ZM878.608 415.544C858.918 415.544 841.878 411.252 827.488 402.669C813.352 394.086 802.37 381.843 794.544 365.939C786.971 350.035 783.184 331.48 783.184 310.275C783.184 289.069 786.971 270.641 794.544 254.989C802.37 239.085 813.352 226.842 827.488 218.259C841.625 209.423 858.287 205.005 877.472 205.005C895.648 205.005 911.679 209.297 925.563 217.88C939.448 226.211 950.176 238.328 957.75 254.232C965.576 270.136 969.488 289.322 969.488 311.789V322.013H824.838C825.848 341.704 831.023 356.472 840.363 366.317C849.956 376.163 862.831 381.085 878.987 381.085C890.852 381.085 900.697 378.308 908.523 372.755C916.349 367.201 921.776 359.754 924.806 350.413L966.459 353.064C961.158 371.745 950.681 386.892 935.03 398.504C919.631 409.864 900.824 415.544 878.608 415.544ZM824.838 291.72H927.078C925.816 273.796 920.64 260.543 911.552 251.96C902.717 243.377 891.357 239.085 877.472 239.085C863.083 239.085 851.218 243.629 841.878 252.717C832.79 261.553 827.11 274.554 824.838 291.72ZM1007.7 411V196.675C1007.7 180.013 1012.37 166.76 1021.71 156.915C1031.05 147.069 1045.69 142.147 1065.63 142.147H1101.23V175.091H1070.93C1063.11 175.091 1057.3 177.236 1053.51 181.528C1049.73 185.567 1047.83 191.373 1047.83 198.947V411H1007.7ZM979.674 244.765V212.2H1098.2V244.765H979.674ZM1137.58 411V209.549H1177.72V411H1137.58ZM1137.2 180.392V140.253H1178.85V180.392H1137.2ZM1223.19 411V209.549H1259.92L1261.43 263.32L1256.51 260.669C1258.78 247.542 1263.08 236.94 1269.39 228.861C1275.7 220.783 1283.4 214.851 1292.49 211.064C1301.57 207.025 1311.42 205.005 1322.02 205.005C1337.17 205.005 1349.66 208.413 1359.51 215.229C1369.61 221.793 1377.18 230.881 1382.23 242.493C1387.53 253.853 1390.18 266.854 1390.18 281.496V411H1350.04V293.613C1350.04 281.748 1348.78 271.777 1346.26 263.699C1343.73 255.62 1339.57 249.436 1333.76 245.144C1327.95 240.852 1320.38 238.707 1311.04 238.707C1296.9 238.707 1285.42 243.377 1276.58 252.717C1267.75 262.058 1263.33 275.69 1263.33 293.613V411H1223.19ZM1484.12 415.544C1463.17 415.544 1446.38 410.748 1433.76 401.155C1421.39 391.562 1415.2 378.056 1415.2 360.637C1415.2 343.219 1420.38 329.713 1430.73 320.12C1441.33 310.275 1457.61 303.206 1479.58 298.915L1548.87 285.661C1548.87 270.01 1545.21 258.397 1537.89 250.824C1530.57 242.998 1519.71 239.085 1505.33 239.085C1492.45 239.085 1482.35 241.988 1475.03 247.795C1467.71 253.348 1462.66 261.679 1459.89 272.787L1418.61 270.136C1422.4 249.94 1431.74 234.036 1446.63 222.424C1461.78 210.812 1481.34 205.005 1505.33 205.005C1532.59 205.005 1553.29 212.326 1567.43 226.968C1581.82 241.357 1589.01 261.679 1589.01 287.933V366.317C1589.01 371.114 1589.77 374.522 1591.28 376.541C1593.05 378.308 1595.83 379.192 1599.61 379.192H1606.81V411C1605.55 411.252 1603.53 411.505 1600.75 411.757C1597.97 412.01 1595.07 412.136 1592.04 412.136C1583.46 412.136 1576.01 410.748 1569.7 407.971C1563.64 405.194 1559.1 400.65 1556.07 394.339C1553.04 387.775 1551.52 379.066 1551.52 368.211L1555.69 370.104C1553.67 378.94 1549.25 386.765 1542.43 393.581C1535.87 400.397 1527.41 405.825 1517.06 409.864C1506.97 413.651 1495.98 415.544 1484.12 415.544ZM1490.56 383.736C1502.67 383.736 1513.02 381.464 1521.61 376.92C1530.19 372.124 1536.88 365.56 1541.68 357.229C1546.47 348.899 1548.87 339.432 1548.87 328.829V315.955L1489.8 327.315C1477.68 329.587 1469.1 333.247 1464.05 338.296C1459.25 343.092 1456.86 349.277 1456.86 356.851C1456.86 365.434 1459.76 372.124 1465.57 376.92C1471.62 381.464 1479.95 383.736 1490.56 383.736ZM1724.05 415.544C1710.17 415.544 1697.8 412.515 1686.94 406.456C1676.34 400.145 1668.13 391.562 1662.33 380.707L1661.19 411H1623.7V142.147H1663.84V237.949C1669.14 229.114 1676.97 221.414 1687.32 214.851C1697.92 208.287 1710.17 205.005 1724.05 205.005C1741.47 205.005 1756.62 209.297 1769.49 217.88C1782.36 226.463 1792.21 238.707 1799.03 254.611C1806.09 270.262 1809.63 288.817 1809.63 310.275C1809.63 331.732 1806.09 350.413 1799.03 366.317C1792.21 381.969 1782.36 394.086 1769.49 402.669C1756.62 411.252 1741.47 415.544 1724.05 415.544ZM1717.61 380.707C1733.01 380.707 1745.26 374.522 1754.34 362.152C1763.43 349.53 1767.98 332.237 1767.98 310.275C1767.98 288.312 1763.43 271.146 1754.34 258.776C1745.26 246.154 1733.14 239.843 1717.99 239.843C1706.63 239.843 1696.91 242.62 1688.83 248.173C1680.76 253.727 1674.57 261.805 1670.28 272.408C1665.99 282.758 1663.84 295.38 1663.84 310.275C1663.84 324.664 1665.99 337.16 1670.28 347.763C1674.57 358.365 1680.76 366.57 1688.83 372.376C1696.91 377.93 1706.5 380.707 1717.61 380.707ZM1881.01 411C1867.89 411 1857.28 407.592 1849.2 400.776C1841.13 393.96 1837.09 383.105 1837.09 368.211V142.147H1877.23V364.424C1877.23 368.968 1878.36 372.376 1880.63 374.648C1883.16 376.92 1886.69 378.056 1891.24 378.056H1907.14V411H1881.01ZM2009.15 415.544C1989.46 415.544 1972.42 411.252 1958.03 402.669C1943.89 394.086 1932.91 381.843 1925.09 365.939C1917.51 350.035 1913.73 331.48 1913.73 310.275C1913.73 289.069 1917.51 270.641 1925.09 254.989C1932.91 239.085 1943.89 226.842 1958.03 218.259C1972.17 209.423 1988.83 205.005 2008.01 205.005C2026.19 205.005 2042.22 209.297 2056.1 217.88C2069.99 226.211 2080.72 238.328 2088.29 254.232C2096.12 270.136 2100.03 289.322 2100.03 311.789V322.013H1955.38C1956.39 341.704 1961.56 356.472 1970.9 366.317C1980.5 376.163 1993.37 381.085 2009.53 381.085C2021.39 381.085 2031.24 378.308 2039.06 372.755C2046.89 367.201 2052.32 359.754 2055.35 350.413L2097 353.064C2091.7 371.745 2081.22 386.892 2065.57 398.504C2050.17 409.864 2031.37 415.544 2009.15 415.544ZM1955.38 291.72H2057.62C2056.36 273.796 2051.18 260.543 2042.09 251.96C2033.26 243.377 2021.9 239.085 2008.01 239.085C1993.62 239.085 1981.76 243.629 1972.42 252.717C1963.33 261.553 1957.65 274.554 1955.38 291.72ZM2104.73 411L2201.67 142.147H2253.54L2350.48 411H2306.94L2282.32 340.947H2172.51L2148.27 411H2104.73ZM2185.38 303.837H2269.83L2227.42 181.149L2185.38 303.837ZM2367.51 411V142.147H2408.41V411H2367.51Z" fill="black"/>
</svg>
